HIERARCHY
ROOT Hips
{
  OFFSET 2.26061 22.2878 23.7974
  CHANNELS 6 Xposition Yposition Zposition Zrotation Xrotation Yrotation
  JOINT LeftUpLeg
  {
    OFFSET 8.64259 1.95398 -2.38835
    CHANNELS 3 Zrotation Xrotation Yrotation
    JOINT LeftLeg
    {
      OFFSET 43.7702 0 0
      CHANNELS 3 Zrotation Xrotation Yrotation
      JOINT LeftFoot
      {
        OFFSET 40.6238 0 0
        CHANNELS 3 Zrotation Xrotation Yrotation
        JOINT LeftToeBase
        {
          OFFSET 12.7242 0 0
          CHANNELS 3 Zrotation Xrotation Yrotation
          End Site
          {
            OFFSET 0 0 0
          }
        }
      }
    }
  }
  JOINT RightUpLeg
  {
    OFFSET -8.2249 1.95398 -2.59336
    CHANNELS 3 Zrotation Xrotation Yrotation
    JOINT RightLeg
    {
      OFFSET 43.5653 0 0
      CHANNELS 3 Zrotation Xrotation Yrotation
      JOINT RightFoot
      {
        OFFSET 40.6238 0 0
        CHANNELS 3 Zrotation Xrotation Yrotation
        JOINT RightToeBase
        {
          OFFSET 12.7242 0 0
          CHANNELS 3 Zrotation Xrotation Yrotation
          End Site
          {
            OFFSET 0 0 0
          }
        }
      }
    }
  }
  JOINT Spine
  {
    OFFSET 0.165834 0.87714 6.61349
    CHANNELS 3 Zrotation Xrotation Yrotation
    JOINT Spine1
    {
      OFFSET 7.38963 1.71661e-005 0
      CHANNELS 3 Zrotation Xrotation Yrotation
      JOINT Spine2
      {
        OFFSET 11.9445 1.14441e-005 0
        CHANNELS 3 Zrotation Xrotation Yrotation
        JOINT Spine3
        {
          OFFSET 14.7254 4.19617e-005 0
          CHANNELS 3 Zrotation Xrotation Yrotation
          JOINT Spine4
          {
            OFFSET 10.9679 0 0
            CHANNELS 3 Zrotation Xrotation Yrotation
            JOINT RightShoulder
            {
              OFFSET 2.46616 -1.6653 3.69651
              CHANNELS 3 Zrotation Xrotation Yrotation
              JOINT RightArm
              {
                OFFSET 13.0012 0 0
                CHANNELS 3 Zrotation Xrotation Yrotation
                JOINT RightForeArm
                {
                  OFFSET 28.7848 1.52588e-005 0
                  CHANNELS 3 Zrotation Xrotation Yrotation
                  JOINT RightHand
                  {
                    OFFSET 26.5688 1.52588e-005 0
                    CHANNELS 3 Zrotation Xrotation Yrotation
                    End Site
                    {
                      OFFSET 0 0 0
                    }
                  }
                }
              }
            }
            JOINT LeftShoulder
            {
              OFFSET 2.38034 -1.29275 -3.7523
              CHANNELS 3 Zrotation Xrotation Yrotation
              JOINT LeftArm
              {
                OFFSET 16.3182 6.10351e-005 0
                CHANNELS 3 Zrotation Xrotation Yrotation
                JOINT LeftForeArm
                {
                  OFFSET 27.0901 0 0
                  CHANNELS 3 Zrotation Xrotation Yrotation
                  JOINT LeftHand
                  {
                    OFFSET 24.5451 1.52588e-005 0
                    CHANNELS 3 Zrotation Xrotation Yrotation
                    End Site
                    {
                      OFFSET 0 0 0
                    }
                  }
                }
              }
            }
            JOINT Neck
            {
              OFFSET 5.0226 -0.0266342 0
              CHANNELS 3 Zrotation Xrotation Yrotation
              JOINT Head
              {
                OFFSET 6.69363 2.86102e-005 0
                CHANNELS 3 Zrotation Xrotation Yrotation
                End Site
                {
                  OFFSET 0 0 0
                }
              }
            }
          }
        }
      }
    }
  }
}
MOTION
Frames:	9
Frame Time:	0.0416667
46.0401 92.0689 0.253824 117.499 -83.6432 121.057 -174.304 -0.880053 89.6114 -43.6319 14.9101 2.01072 67.2951 8.57439 5.58945 44.8988 13.4042 6.09183 -178.974 23.3952 91.6963 -26.4946 -19.9461 -6.07026 61.4856 -2.10653 -1.22364 55.751 -0.172317 -8.75338 -1.15283 7.85982 -90.6197 11.1497 -2.58261 -0.98448 -0.518892 -2.62343 -0.869803 -23.0672 -2.16731 -1.71537 -3.05454 -2.16731 -1.71537 93.1423 -55.0523 -95.1535 20.689 -2.74447 13.0495 -8.55856 -20.7024 -43.5156 -8.53321 -0.990209 5.06506 -106.2 -52.9843 56.4711 -12.5692 9.47125 1.84806 1.12893 3.00473 -38.8279 15.9082 0.957525 2.12445 0.771583 13.7498 -1.58611 5.06347 14.7717 13.024 
47.4642 91.6212 7.87778 113.467 -81.3973 118.277 -171.347 8.43402 89.5622 -58.9294 11.1514 0.498254 55.4834 -0.487574 2.85608 42.3797 12.2924 16.2775 -179.314 22.4865 92.7407 -35.8211 -14.8388 -5.93728 66.0893 -3.63623 -1.98977 49.3233 0.587937 -3.75525 -0.978726 7.94988 -90.8995 10.9553 -2.36473 -1.56429 -0.714311 -2.43128 -1.45868 -23.2527 -1.78538 -2.20263 -3.24006 -1.78538 -2.20263 92.4211 -54.5897 -96.2795 21.5848 -1.91272 11.6074 -5.90981 -18.8087 -39.8656 -10.3536 -1.16832 5.86804 -106.94 -53.4842 55.6756 -13.6211 10.3454 1.39914 0.606923 3.25048 -37.2203 15.4207 0.95621 2.30977 -0.106217 14.2296 -1.86454 5.96345 15.4339 13.8389 
48.807 92.9197 14.86 103.875 -78.1243 107.234 -167.979 16.784 90.2402 -60.4864 8.45241 -1.84516 53.8792 -1.51346 3.57503 42.5532 12.4982 16.3523 179.714 17.4557 91.4584 -35.3541 -11.4442 -6.38094 68.9258 -4.68714 -2.47668 42.1882 0.630862 -0.740746 -0.707908 7.93453 -90.7312 10.9938 -1.74795 -1.28801 -0.676496 -1.80295 -1.20984 -23.2122 -1.28011 -1.75375 -3.19956 -1.2801 -1.75375 92.0189 -54.3968 -96.9008 23.0366 -2.44503 10.3955 -5.08655 -18.4101 -39.6572 -10.8377 -1.2592 6.45377 -107.524 -53.708 54.9804 -15.4048 11.5301 1.52233 1.76055 6.34041 -35.2716 14.1361 0.994219 3.09711 -0.452337 12.6133 -1.52567 8.01197 13.8516 11.9933 
50.7978 94.3524 21.9803 94.1239 -73.5678 96.1851 -166.675 23.1009 88.6653 -49.7804 5.27495 -4.16058 58.4324 1.22994 0.859674 43.8831 13.7705 15.6629 178.466 11.4026 90.4262 -31.1505 -7.58165 -6.84438 70.5328 -4.98572 -2.55765 38.7025 0.451479 -1.8842 -0.375226 7.78037 -90.4701 11.3101 -0.965745 -0.840481 -0.360732 -1.0018 -0.797167 -22.8953 -0.668514 -1.09185 -2.88269 -0.668518 -1.09186 91.8644 -53.8988 -97.2168 23.7937 -4.62846 10.0698 -6.71595 -21.4693 -42.6286 -10.0167 -1.15441 5.75855 -106.956 -53.1697 55.5174 -18.1658 13.0359 2.94408 1.83889 8.36123 -33.098 12.7624 0.993825 3.76129 -1.19476 9.51257 -3.0506 9.9933 11.1212 11.6524 
53.2681 94.9562 29.152 88.776 -69.5184 90.1124 -167.618 25.9522 87.7123 -31.5607 -0.466078 -5.04676 61.4558 2.95727 0.450864 43.0152 12.8672 15.5058 176.259 5.54983 89.4204 -26.8639 -5.33787 -6.1889 71.4889 -5.02327 -2.52412 39.7493 0.442819 -3.36258 0.00486778 7.6284 -90.2172 11.6157 -0.0919093 -0.422892 -0.0553009 -0.110432 -0.418442 -22.5899 0.0394239 -0.430966 -2.57726 0.0394328 -0.430964 92.2996 -52.6589 -96.8045 24.0234 -6.64518 9.86073 -8.93075 -21.9763 -47.3465 -8.84825 -0.945757 4.24897 -105.381 -53.3377 57.7386 -20.5297 14.4497 6.27089 2.00543 9.49295 -33.2356 12.973 1.07664 4.26867 0.0547306 6.62683 -2.88454 10.1542 7.98088 9.12 
56.7788 94.3393 36.0945 84.6364 -67.7796 86.8969 -172.114 26.6412 89.5586 -10.5161 0.130015 -2.44324 60.1114 2.37791 1.22513 42.5486 12.3891 15.469 174.067 0.970861 88.2402 -24.9614 -5.80992 -4.87004 72.0773 -5.23417 -2.58626 42.6971 0.469183 -4.04507 0.466174 7.55581 -90.1164 11.7637 0.872548 -0.324083 0.0929402 0.857432 -0.36218 -22.4445 0.929595 -0.0468449 -2.43183 0.929593 -0.0468443 91.0719 -51.4424 -98.875 21.7992 -8.51878 8.72928 -9.60643 -22.4305 -50.9023 -9.64064 -0.936803 3.55124 -103.757 -53.519 60.0471 -22.6564 13.2509 9.47061 2.7534 10.1086 -32.2463 10.6425 0.819853 3.59623 2.91976 4.11553 -1.18964 9.19906 4.73701 4.47832 
61.013 93.1192 43.2179 83.2897 -68.6932 86.5203 -173.972 29.2116 92.2753 -5.8785 5.24368 -0.379631 62.6398 3.02405 2.43542 42.2193 11.8853 13.9362 173.509 -2.07348 87.7601 -27.4694 -8.76077 -5.61798 70.4087 -4.87331 -2.47168 48.1669 0.278519 -6.56453 0.919579 7.52337 -89.9639 11.8295 1.8457 -0.124639 0.159885 1.83843 -0.205781 -22.3854 1.79779 0.436014 -2.37276 1.7978 0.436015 90.8392 -49.4567 -99.6551 21.2367 -9.19897 6.11374 -10.9958 -24.9471 -51.6287 -10.2594 -1.07045 4.41493 -102.737 -54.0392 61.6515 -23.976 11.7079 13.5521 2.75095 9.88782 -30.1013 9.42812 0.690368 3.17547 4.94736 3.05889 -2.91862 7.84906 3.98469 5.06096 
66.4496 92.3218 51.0675 82.8012 -67.5711 84.5427 -172.398 30.9874 91.0404 -13.7043 4.68593 -2.11482 54.4002 -2.81564 0.0983654 39.532 9.01133 10.4326 173.86 -2.99755 85.3896 -34.8468 -11.456 -8.38346 63.342 -2.30527 -1.19923 52.8932 0.29614 -6.13438 1.02478 7.43681 -89.5891 11.9989 2.23153 0.577989 0.329799 2.25482 0.479162 -22.2171 1.95461 1.22215 -2.20442 1.95461 1.22214 91.2609 -50.6617 -98.7526 19.6809 -8.10413 5.21644 -11.7472 -26.0467 -50.4414 -9.81287 -1.0973 4.86006 -103.365 -54.2912 60.8861 -24.8932 11.3625 16.3117 2.01308 11.2793 -26.0209 8.92381 0.817539 4.79564 5.45325 1.61258 -3.03876 6.57949 2.38713 3.37691 
72.3364 92.2232 58.8354 84.3035 -62.745 83.3381 -170.792 31.5782 86.511 -25.9279 10.4095 -3.99014 55.3348 -2.33081 2.54382 37.0098 6.4818 0.946335 176.246 1.83774 83.5709 -48.3347 -6.48571 -8.65719 45.5693 3.04427 3.00948 44.9025 0.520935 -7.53915 0.78184 7.43747 -89.2112 11.9849 1.92651 1.36426 0.314682 1.98469 1.27814 -22.2216 1.42749 1.88015 -2.20897 1.4275 1.88014 91.341 -51.6296 -98.4332 20.5682 -6.8305 7.08201 -11.1948 -25.5321 -48.2831 -10.3586 -1.19426 5.60583 -103.862 -53.8057 60.0143 -24.6363 11.8259 14.848 0.913614 13.0404 -21.5847 5.1528 0.502293 4.58072 5.24043 0.0863686 -2.63129 5.54138 0.65933 1.91727 
